<?xml version="1.0" encoding="utf-8"?>
<!-- Generator: Adobe Illustrator 19.0.0, SVG Export Plug-In . SVG Version: 6.00 Build 0)  -->
<svg version="1.1" id="Layer_1" xmlns="http://www.w3.org/2000/svg" xmlns:xlink="http://www.w3.org/1999/xlink" x="0px" y="0px"
	 viewBox="0 0 512 512" style="enable-background:new 0 0 512 512;" xml:space="preserve">
<g id="XMLID_1_">
	<path id="XMLID_5_" d="M256,0C114.5,0,0,114.5,0,256s114.5,256,256,256s256-114.5,256-256S397.5,0,256,0z M406.8,288.6
		c0.9,3.7,0.9,7.4,0.9,11.2c0,55.9-68,102.4-151.7,102.4s-151.7-45.6-151.7-102.4c0-3.7,0-8.4,0.9-12.1
		c-11.2-7.4-17.7-19.5-17.7-32.6c0-21.4,17.7-39.1,39.1-39.1c9.3,0,18.6,3.7,25.1,9.3c26.1-16.8,60.5-27,98.7-27.9l27-93.1l68.9,13
		l0,0c3.7-7.4,11.2-12.1,20.5-13c14-0.9,25.1,10.2,26.1,23.3c0.9,14-10.2,25.1-23.3,26.1c-14,0.9-25.1-10.2-26.1-23.3v-0.9
		l-56.8-10.2l-23.3,79.1c38.2,0.9,72.6,11.2,97.7,27.9c7.4-6.5,15.8-9.3,26.1-9.3c21.4,0,39.1,17.7,39.1,39.1
		C425.4,269,418,281.1,406.8,288.6z"/>
	<path id="XMLID_6_" d="M303.5,337.9c0,0-14.9,14.9-48.4,14.9c-32.6,0-45.6-14-45.6-14c-1.9-2.8-5.6-2.8-8.4-0.9
		c-2.8,1.9-2.8,6.5-0.9,8.4c0.9,0.9,15.8,18.6,54.9,18.6s55.9-17.7,56.8-18.6c1.9-2.8,1.9-6.5,0-8.4
		C310,336.1,305.3,336.1,303.5,337.9z"/>
	<circle id="XMLID_7_" cx="307.2" cy="282.1" r="24.2"/>
	<circle id="XMLID_8_" cx="207.6" cy="282.1" r="24.2"/>
</g>
</svg>
