<svg version="1.1" id="Layer_1" xmlns="http://www.w3.org/2000/svg" xmlns:xlink="http://www.w3.org/1999/xlink" x="0px" y="0px"
	 width="100%" viewBox="0 0 641 641" enable-background="new 0 0 641 641" xml:space="preserve">

<path fill="#2F7E9C" opacity="1.000000" stroke="none" 
	d="
M137.021500,216.025330 
	C137.014328,285.127747 137.041275,354.230255 136.896835,423.332397 
	C136.889801,426.700958 138.180832,428.458252 140.743988,429.926605 
	C165.774841,444.266235 190.840225,458.546234 215.817291,472.979004 
	C242.207520,488.228363 268.499603,503.647461 294.861389,518.946167 
	C303.640503,524.041016 312.502441,528.993225 321.663696,534.541565 
	C322.000580,570.715027 322.000275,606.357483 322.000000,642.000000 
	C320.933319,642.000000 319.866669,642.000000 318.576416,641.657715 
	C317.833435,640.676941 317.441986,639.816467 316.775787,639.432312 
	C300.866791,630.256897 284.923187,621.141357 268.996613,611.996277 
	C252.927872,602.769592 236.861389,593.538879 220.810959,584.280457 
	C204.479767,574.859985 188.173615,565.396179 171.848648,555.964905 
	C155.803741,546.695435 139.740479,537.457886 123.700897,528.179199 
	C107.520439,518.819092 91.359413,509.425446 75.189499,500.047089 
	C64.843346,494.046478 54.496521,488.046967 44.086761,481.579132 
	C44.016083,375.600494 44.008366,270.089661 44.006332,164.578812 
	C44.006317,163.748749 44.083569,162.918701 44.442665,162.204834 
	C48.635567,164.508835 52.527653,166.666946 56.382561,168.889557 
	C72.671700,178.281235 88.979675,187.640854 105.221291,197.114151 
	C115.874016,203.327606 126.424973,209.715546 137.021500,216.025330 
z"/>
<path fill="#009FE8" opacity="1.000000" stroke="none" 
	d="
M322.375000,642.000000 
	C322.000275,606.357483 322.000580,570.715027 322.021912,534.614990 
	C332.425476,528.093872 342.799286,522.015381 353.192535,515.970215 
	C369.356537,506.568726 385.520996,497.167786 401.709229,487.808105 
	C415.501831,479.833557 429.333344,471.926300 443.138397,463.973175 
	C459.200806,454.719574 475.250183,445.443359 491.312042,436.188812 
	C494.972687,434.079559 498.558624,431.800354 502.371185,430.008392 
	C505.165283,428.695160 506.084015,426.995331 506.070648,423.917328 
	C505.949921,396.104095 506.000458,368.290131 505.999878,340.476379 
	C505.999023,299.005585 505.997467,257.534760 506.300598,215.444031 
	C526.333252,203.459854 546.040649,192.059219 565.797974,180.745712 
	C576.782043,174.456039 587.849304,168.311600 598.930664,162.561050 
	C598.988159,268.185272 598.994507,373.350128 598.993103,478.514984 
	C598.993103,479.678040 598.890198,480.841095 598.524658,482.142242 
	C597.433716,482.863647 596.704956,483.537109 595.865479,484.016846 
	C581.753235,492.081848 567.586182,500.051758 553.513306,508.184692 
	C528.875854,522.423035 504.322479,536.807007 479.681122,551.038574 
	C457.009247,564.132812 434.239532,577.057434 411.564758,590.146667 
	C385.786285,605.027527 360.039276,619.963501 334.351318,634.999695 
	C331.012329,636.954041 328.106476,639.648376 325.000000,642.000000 
	C324.250000,642.000000 323.500000,642.000000 322.375000,642.000000 
z"/>
<path fill="#86D3FD" opacity="1.000000" stroke="none" 
	d="
M598.879028,162.101700 
	C587.849304,168.311600 576.782043,174.456039 565.797974,180.745712 
	C546.040649,192.059219 526.333252,203.459854 506.289093,214.984589 
	C496.098328,209.678635 486.159393,204.324219 476.363800,198.719284 
	C461.920990,190.455276 447.578613,182.015808 433.196503,173.645844 
	C408.339203,159.179611 383.515778,144.654755 358.617889,130.258728 
	C340.017090,119.503677 321.283600,108.978165 302.677765,98.231735 
	C280.296021,85.304413 257.992218,72.242157 235.638031,59.267029 
	C233.433060,57.987186 231.111908,56.907471 227.926651,55.260056 
	C234.476852,51.361343 240.178574,47.882740 245.959702,44.541481 
	C270.291443,30.478668 294.647552,16.457991 318.985077,2.405169 
	C319.247253,2.253798 319.379974,1.878245 319.286560,1.303672 
	C320.388885,1.000000 321.777802,1.000000 323.296783,1.303826 
	C323.619934,1.878354 323.752655,2.253441 324.014648,2.404885 
	C343.582458,13.715334 363.143646,25.037382 382.742523,36.293869 
	C401.369904,46.992374 420.074707,57.556423 438.677277,68.297684 
	C458.675964,79.845055 478.567963,91.577126 498.557861,103.139854 
	C514.917236,112.602592 531.371582,121.901077 547.748108,131.334396 
	C564.814392,141.165024 581.838013,151.069870 598.906006,161.232162 
	C598.914246,161.715271 598.896667,161.908478 598.879028,162.101700 
z"/>

<path fill="#86D3FD" opacity="1.000000" stroke="none" 
	d="
M44.442665,162.204834 
	C44.105370,161.898010 44.085999,161.707367 44.094620,161.231201 
	C61.159924,151.074478 78.180054,141.173492 95.240105,131.341766 
	C108.389969,123.763474 121.561790,116.221611 134.819626,108.835464 
	C135.913834,108.225868 138.011185,108.452156 139.188156,109.106812 
	C149.633896,114.916916 159.998093,120.875053 170.345413,126.860329 
	C184.185165,134.865768 197.979156,142.950287 211.809647,150.971802 
	C228.148544,160.448166 244.491333,169.918015 260.858826,179.344818 
	C274.850555,187.403305 288.914246,195.337311 302.884583,203.432495 
	C327.756653,217.844788 352.565247,232.366684 377.434784,246.783325 
	C389.166107,253.583847 400.979828,260.242218 412.742615,266.988678 
	C413.219025,267.261932 413.555847,267.778564 413.553589,268.622803 
	C409.812683,270.865173 406.427124,272.582306 403.146698,274.481018 
	C375.740112,290.344147 348.352905,306.240662 320.959839,322.127106 
	C293.461884,306.128967 265.997314,290.073059 238.455109,274.151459 
	C217.484818,262.028931 196.401154,250.102676 175.396545,238.039291 
	C162.806000,230.808319 150.270477,223.481506 137.365875,216.111542 
	C126.424973,209.715546 115.874016,203.327606 105.221291,197.114151 
	C88.979675,187.640854 72.671700,178.281235 56.382561,168.889557 
	C52.527653,166.666946 48.635567,164.508835 44.442665,162.204834 
z"/>
<path fill="#009FE8" opacity="1.000000" stroke="none" 
	d="
M320.976685,322.585938 
	C348.352905,306.240662 375.740112,290.344147 403.146698,274.481018 
	C406.427124,272.582306 409.812683,270.865173 413.490845,268.985382 
	C413.888000,303.559448 413.979004,338.212036 413.880341,372.864105 
	C413.876068,374.363281 412.485992,376.469208 411.136078,377.263031 
	C388.001343,390.867432 364.783478,404.330719 341.554047,417.773438 
	C334.985413,421.574646 328.321625,425.211365 320.993561,429.320465 
	C320.993561,393.505798 320.993561,358.275299 320.976685,322.585938 
z"/>
</svg>