<svg fill="#FFFFFF" role="img" viewBox="0 0 2411 1024" xmlns="http://www.w3.org/2000/svg">
    <title>grpc</title>
    <path d="M283.412 859.65c16.954 22.808 39.036 41.084 66.23 54.83 27.199 13.736
57.464 20.613 90.799 20.613 29.238 0 54.091-4.248 74.568-12.718
20.467-8.488 36.982-20.038 49.564-34.651 12.573-14.63 21.631-31.729
27.198-51.325 5.55-19.596 8.333-40.501 8.333-62.716v-73.691h-1.752c-18.724
28.067-41.536 47.962-68.429 59.654-26.906 11.7-55.268 17.542-85.095
17.542s-57.759-5.266-83.775-15.789c-26.035-10.533-48.692-25.003-67.992-43.422-19.298-18.427-34.513-40.492-45.616-66.239-11.116-25.729-16.67-53.511-16.67-83.337s5.266-57.6
15.794-83.343c10.523-25.729 24.999-48.249 43.422-67.548s40.355-34.349
65.796-45.179c25.442-10.815 53.366-16.232 83.781-16.232 12.28 0 25.291
1.182 39.035 3.51 13.736 2.345 27.486 6.443 41.231 12.285 13.736 5.85
27.336 13.895 40.793 24.122 13.448 10.241 26.016 23.247 37.726
39.04h1.752v-68.429h57.902v407.058c0 22.216-2.784 45.899-8.337 71.053-5.563
25.137-16.379 48.255-32.456 69.301-16.095 21.056-38.465 38.607-67.11
52.644-28.663 14.028-66.097 21.046-112.293 21.046-40.944
0-77.501-6.727-109.655-20.171-32.172-13.462-61.411-34.217-87.729-62.291l42.988-45.616zm10.523-293.002c0
21.64 3.948 41.97 11.847 60.963 7.895 19.012 18.71 35.686 32.455 50.007
13.736 14.339 29.827 25.747 48.25 34.217 18.423 8.479 38.452 12.718 60.097
12.718 21.051 0 41.08-3.797 60.092-11.409 18.998-7.593 35.819-18.267
50.44-32.012 14.612-13.736 25.879-30.27 33.779-49.573 7.894-19.294
11.541-40.925 10.965-64.91
0-21.635-3.509-41.962-10.528-60.972-7.019-18.999-17.259-35.669-30.707-50.007-13.457-14.325-29.827-25.729-49.126-34.212-19.298-8.471-40.943-12.718-64.915-12.718-21.645
0-41.674 4.248-60.097 12.718-18.423 8.484-34.514 19.888-48.25 34.212-13.744
14.339-24.56 31.008-32.455 50.006-7.899 19.012-11.847 39.338-11.847
60.973zm600.046 210.54h-63.163V156.083h191.241c63.163 0 113.019 13.749
149.576 41.23 36.545 27.499 54.831 69.018 54.831 124.573 0 43.288-13.599
79.696-40.793 109.222-27.198 29.54-66.535 46.643-117.992 51.317l178.965
294.763h-77.205l-170.19-288.621h-105.27v288.621zm0-346.522h112.289c28.075 0
51.896-2.916 71.496-8.772 19.591-5.837 35.23-13.599 46.935-23.246
11.692-9.651 20.18-21.056 25.442-34.212 5.262-13.161 7.894-27.336
7.894-42.55
0-14.613-2.633-28.513-7.894-41.669-5.262-13.161-13.75-24.702-25.442-34.655-11.705-9.935-27.344-17.679-46.935-23.246-19.6-5.55-43.422-8.333-71.496-8.333H893.981v216.682zm461.43-274.584h180.722c63.158
0 113.014 13.75 149.568 41.231 36.544 27.499 54.83 69.018 54.83 124.573 0
55.569-18.286 97.238-54.83 125.012-36.554 27.782-86.409 41.669-149.568
41.669h-117.556v288.621h-63.168V156.083zm63.168 274.584h101.764c28.067 0
51.892-2.916 71.496-8.772 19.586-5.837 35.226-13.599 46.935-23.246
11.692-9.651 20.171-21.056 25.437-34.212 5.266-13.161 7.895-27.336
7.895-42.55
0-14.613-2.628-28.513-7.895-41.669-5.266-13.161-13.745-24.702-25.437-34.655-11.709-9.935-27.348-17.679-46.935-23.246-19.604-5.55-43.431-8.333-71.496-8.333h-101.764v216.682zm956.201
248.27c-10.523 15.789-23.542 30.703-39.032 44.741-15.506 14.037-33.198
26.18-53.077 36.402-19.888 10.241-41.386 18.277-64.477 24.127-23.109
5.841-47.528 8.771-73.258 8.771-46.201
0-89.038-8.195-128.512-24.56-39.483-16.365-73.69-39.04-102.642-67.992s-51.626-63.3-67.991-103.075c-16.383-39.765-24.56-83.342-24.56-130.715s8.178-90.932
24.56-130.712c16.364-39.766 39.04-74.13 67.991-103.079s63.158-51.609
102.642-67.987c39.474-16.369 82.311-24.565 128.512-24.565 38.607 0 77.205
7.607 115.803 22.808 38.598 15.214 71.637 40.355 99.128 75.447l-55.264
41.231c-6.443-9.939-15.214-19.878-26.321-29.827-11.116-9.939-23.835-18.71-38.156-26.317-14.339-7.594-29.694-13.736-46.059-18.423-16.382-4.677-32.757-7.019-49.13-7.019-39.774
0-75.443 7.32-107.022 21.933-31.58 14.625-58.335 34.212-80.267
58.772-21.932 24.565-38.757 53.078-50.449 85.538-11.7 32.455-17.541
66.534-17.541 102.199 0 35.681 5.841 69.744 17.542 102.199 11.691 32.464
28.517 60.971 50.449 85.533 21.932 24.569 48.687 44.165 80.267 58.777
31.579 14.63 67.248 21.931 107.022 21.931 16.374 0 32.598-1.451 48.688-4.38
16.082-2.921 31.871-7.895 47.377-14.913 15.489-7.019 30.109-16.524
43.863-28.517 13.736-11.976 26.455-27.039 38.156-45.174l51.759
36.846zM25.963 33.482l-2.884 25.524V33.482zm3.811 0-6.695
59.247V59.006l2.884-25.524zm3.81 0-10.505 92.969V92.728l6.695-59.247zm3.811
0L23.08 160.174v-33.723l10.505-92.969zm3.81 0L23.079 193.897v-33.723L37.394
33.482zm3.81 0L23.079 227.619v-33.723L41.205 33.481zm3.811 0L23.08
261.342v-33.723L45.016 33.482zm3.81 0L23.08
295.065v-33.723l25.746-227.86zm3.81 0L23.079 328.787v-33.723L52.635
33.481zm3.81 0L23.449 359.233l-.37-.042v-30.404L56.446 33.482zm3.811
0-36.83 325.95h-2.021l-1.766-.199L60.255 33.482zm3.81 0-36.829
325.95h-3.811l36.83-325.95zm3.81 0-36.829 325.95h-3.81l36.829-325.95zm3.811
0-36.829 325.95h-3.81l36.829-325.95zm3.81 0-36.829
325.95h-3.81l36.829-325.95zm3.81 0-36.829 325.95h-3.81l36.829-325.95zm3.81
0-36.829 325.95h-3.81l36.829-325.95zm3.811 0L53.91
359.432H50.1l36.829-325.95zm3.81 0L57.72 359.432h-3.81l36.829-325.95zm3.81
0L61.53 359.432h-3.81l36.829-325.95zm3.811 0-36.83
325.95h-3.81l36.829-325.95zm3.81 0-36.828 325.95h-3.811l36.83-325.95zm3.811
0-36.83 325.95h-3.81l36.83-325.95zm3.81 0-36.83
325.95h-3.81l36.83-325.95zm3.811 0-36.83 325.95h-3.81l36.83-325.95zm3.81
0-36.83 325.95h-3.81l36.83-325.95zm3.809 0-36.829
325.95h-3.81l36.831-325.95zm3.811 0-36.83 325.95h-3.81l36.83-325.95zm3.811
0-36.83 325.95h-3.81l36.83-325.95zm3.81 0-36.829
325.95h-3.811l36.83-325.95zm3.811 0-36.831
325.95h-3.809l36.829-325.95zm3.81 0-36.829 325.95h-3.81l36.829-325.95zm3.81
0-36.829 325.95h-3.81l36.828-325.95zm3.81 0-36.829
325.95h-3.81l36.829-325.95zm3.81 0-36.828 325.95h-3.81l36.828-325.95zm3.812
0-36.831 325.95h-3.809l36.829-325.95zm3.809 0-36.829
325.95h-3.81l36.829-325.95zm3.81 0-36.829 325.95h-3.81l36.828-325.95zm3.811
0-36.83 325.95h-3.81l36.829-325.95zm3.811 0-36.83
325.95h-3.81l36.83-325.95zm3.81 0-36.831 325.95h-3.81l36.831-325.95zm3.81
0-36.83 325.95h-3.81l36.83-325.95zm3.811 0-36.83
325.95h-3.81l36.83-325.95zm3.81 0-36.83 325.95h-3.81l36.83-325.95zm3.81
0-36.83 325.95h-3.81l36.83-325.95zm3.81 0-36.831
325.95h-3.81l36.831-325.95zm3.811 0-36.83 325.95h-3.81l36.83-325.95zm3.81
0-36.83 325.95h-3.81l36.83-325.95zm3.81 0-36.829
325.95h-3.811l36.83-325.95zm3.811 0-36.829 325.95h-3.81l36.829-325.95zm3.81
0-36.829 325.95h-3.81l36.829-325.95zm3.81 0-36.829
325.95h-3.81l36.829-325.95zm3.81 0-36.829 325.95h-3.81l36.829-325.95zm3.811
0-36.829 325.95h-3.81l36.829-325.95zm3.81 0-36.829
325.95h-3.81l36.829-325.95zm3.81 0-36.829 325.95h-3.81l36.829-325.95zm3.811
0-36.829 325.95h-3.81l36.829-325.95zm3.811 0-36.83
325.95h-3.81l36.829-325.95zm3.81 0-36.83 325.95h-3.81l36.83-325.95zm3.81
0-36.83 325.95h-3.81l36.83-325.95zm3.81 0-36.829
325.95h-3.81l36.831-325.95zm3.811 0-36.83 325.95h-3.81l36.83-325.95zm3.81
0-36.83 325.95h-3.81l36.83-325.95zm3.81 0-36.83
325.95h-3.81l36.83-325.95zm3.811 0-36.83 325.95h-3.81l36.83-325.95zm3.81
0-36.83 325.95h-3.81l36.831-325.95zm3.81 0-36.829
325.95h-3.811l36.83-325.95zm3.81 0-36.829 325.95h-3.81l36.829-325.95zm3.811
0-36.828 325.95h-3.81l36.828-325.95zm61.827 0
2.137.241v325.71H248.237l36.829-325.951zm380.121
121.299-2.601-55.844h2.601zm0 58.678L721.68 98.937h2.733l2.601 55.844zm0
58.678-8.067-173.2h2.733l5.334 114.522zm-1.895
17.989-8.905-191.189h2.733l8.067 173.2v17.989zm-2.733
0-8.905-191.189h2.733l8.905 191.189zm-2.733 0-8.905-191.189h2.733l8.905
191.189zm-2.733 0-8.905-191.189h2.733l8.905 191.189zm-2.733
0-8.905-191.189h2.733l8.905 191.189zm-2.733 0-8.905-191.189h2.733l8.905
191.189zm-2.733 0-8.905-191.189h2.733l8.905 191.189zm-2.733
0-8.905-191.189h2.733l8.905 191.189zm-2.733 0L694.35 98.937h2.733l8.905
191.189zm-2.733 0-8.905-191.189h2.733l8.905 191.189zm-2.733
0-8.905-191.189h2.733l8.905 191.189zm-2.733 0-8.905-191.189h2.733l8.905
191.189zm-2.734 0-8.904-191.189h2.733l8.905 191.189zm-2.732
0-8.905-191.189h2.733l8.905 191.189zm-2.734 0-8.904-191.189h2.733l8.905
191.189zm-2.732 0-8.905-191.189h2.734l8.905 191.189zm-2.734
0-8.905-191.189h2.733l8.905 191.189zm-2.732 0-8.905-191.189h2.733l8.905
191.189zm-2.734 0-8.905-191.189h2.733l8.905 191.189zm-2.732
0-8.905-191.189h2.733l8.905 191.189zm-2.734 0-8.905-191.189h2.733l8.905
191.189zm-2.732 0-8.905-191.189h2.733l8.905 191.189zm-2.734
0-8.905-191.189h2.733l8.905 191.189zm-2.732 0-8.905-191.189h2.733l8.905
191.189zm-2.734 0-8.905-191.189h2.733l8.905 191.189zm-2.732
0-8.905-191.189h2.733l8.905 191.189zm-2.734 0-8.905-191.189h2.733l8.905
191.189zm-2.732 0-8.905-191.189h2.733l8.905 191.189zm-2.734
0-8.905-191.189h2.733l8.905 191.189zm-2.732 0-8.905-191.189h2.733l8.905
191.189zm-2.734 0-8.905-191.189h2.733l8.905 191.189zm-2.732
0-8.905-191.189h2.733l8.905 191.189zm-2.734 0-8.905-191.189h2.733l8.905
191.189zm-2.732 0-8.905-191.189h2.733l8.905 191.189zm-2.734
0-8.905-191.189h2.733l8.905 191.189zm-2.732 0-8.905-191.189h2.733l8.905
191.189zm-2.734 0-8.905-191.189h2.733l8.905 191.189zm-2.732
0-8.905-191.189h2.733l8.905 191.189zm-2.734 0-8.905-191.189h2.733l8.905
191.189zm-2.732 0-8.905-191.189h2.733l8.905 191.189zm-2.734
0-8.905-191.189h2.733l8.905 191.189zm-2.732 0-8.905-191.189h2.733l8.905
191.189zm-2.734 0-8.905-191.189h2.733l8.905 191.189zm-2.733
0-8.905-191.189h2.733l8.905 191.189zm-2.733 0-8.905-191.189h2.733l8.905
191.189zm-2.733 0-8.905-191.189h2.733l8.905 191.189zm-2.733
0-8.905-191.189h2.733l8.905 191.189zm-2.733 0-8.905-191.189h2.733l8.905
191.189zm-2.733 0-8.905-191.189h2.733l8.905 191.189zm-2.733
0-8.905-191.189h2.733l8.905 191.189zm-2.733 0-8.905-191.189h2.733l8.905
191.189zm-2.733 0L576.83 98.937h2.733l8.905 191.189zm-2.733
0-8.905-191.189h2.733l8.905 191.189zm-2.733 0-8.905-191.189h2.733l8.905
191.189zm-2.733 0-8.905-191.189h2.733l8.905 191.189zm-2.733
0-8.905-191.189h2.733l8.905 191.189zm-2.733 0-8.905-191.189h2.733l8.905
191.189zm-2.733 0-8.905-191.189h2.733l8.905 191.189zm-2.733
0-8.905-191.189h2.733l8.905 191.189zm-2.733 0-8.905-191.189h2.733l8.905
191.189zm-2.733 0-8.905-191.189h2.733l8.905 191.189zm-2.733 0L549.5
98.937h2.733l8.905 191.189zm-2.733 0-8.905-191.189h2.733l8.905
191.189zm-2.733 0-8.905-191.189h2.733l8.905 191.189zm-2.733
0-8.905-191.189h2.733l8.905 191.189zm-2.733 0-8.905-191.189h2.733l8.905
191.189zm-2.733 0-8.905-191.189h2.733l8.905 191.189zm-2.733
0-6.182-132.742V98.938h.011l8.905 191.189zm-2.733
0-3.45-74.065v-58.678l6.183 132.743zm-2.733 0-.717-15.388V216.06l3.45
74.065zm-.716-15.388.717 15.388h-.717zM192.611 97.918 94.285 196.98l99.059
98.327 83.802-.311-87.876-87.175 433.947-1.61-38.033 38.293 41.901-.156
49.164-49.53-49.529-49.163-41.901.156 38.317 38.012-433.946 1.609
87.224-87.824z" />
</svg>